<svg width="370" height="138" viewBox="0 0 370 138" fill="none" xmlns="http://www.w3.org/2000/svg">
<g clip-path="url(#clip0_153_3853)">
<path d="M32.0423 63.9069C12.711 63.9069 0 50.1369 0 32.0417C0 13.9465 13.2406 0 31.8657 0C42.6348 0 49.2551 3.00115 55.6106 8.38557L48.7254 16.5946C43.9588 12.5342 39.2805 9.97441 31.4244 9.97441C20.0375 9.97441 11.3869 19.8606 11.3869 31.8652C11.3869 44.6642 19.7726 54.0207 32.3954 54.0207C38.2212 54.0207 43.5175 52.1671 47.3131 49.3425V37.7792H31.5127V28.3344H57.8173V54.2855C51.7266 59.4934 42.9878 63.9069 32.0423 63.9069Z" fill="white"/>
<path d="M175.036 10.7688H140.081V26.8338H171.064V36.5434H140.081V53.138H175.478V62.8476H129.224V1.0592H175.036V10.7688Z" fill="white"/>
<path d="M233.494 10.7688H198.539V26.8338H229.522V36.5434H198.539V53.138H233.935V62.8476H187.681V1.0592H233.494V10.7688Z" fill="white"/>
<path d="M289.109 1.0592H299.789V62.8476H290.698L256.625 18.8896V62.8476H245.944V1.0592H256.007L289.109 43.7815V1.0592Z" fill="white"/>
<path d="M51.5942 84.8663H16.639V100.931H47.6221V110.641H16.639V127.236H52.0356V136.945H5.78174V75.1567H51.5942V84.8663Z" fill="white"/>
<path d="M109.575 75.1567H120.256V136.945H111.164L77.0912 92.9871V136.945H66.4105V75.1567H76.4733L109.575 117.879V75.1567Z" fill="white"/>
<path d="M175.036 84.8663H140.081V100.931H171.064V110.641H140.081V127.236H175.478V136.945H129.224V75.1567H175.036V84.8663Z" fill="white"/>
<path d="M220.341 113.554C228.992 111.171 235.083 104.992 235.083 94.7525C235.083 82.6596 226.344 75.1567 212.132 75.1567H184.592V85.0429H211.25C219.282 85.0429 224.049 88.5737 224.049 95.3704C224.049 101.726 219.106 105.786 211.338 105.786H184.592V136.945H195.449V115.407H209.043L224.225 136.945H237.025L220.341 113.554Z" fill="white"/>
<path d="M102.941 39.4078C111.592 37.0246 117.683 30.8457 117.683 20.6065C117.683 8.51362 108.944 1.01074 94.7321 1.01074H67.1917V10.8969H93.8494C101.882 10.8969 106.649 14.4277 106.649 21.2244C106.649 27.5798 101.706 31.6401 93.9377 31.6401H67.1917V62.7992H78.0489V41.2615H91.6426L106.825 62.7992H119.624L102.941 39.4078Z" fill="white"/>
<path d="M276.001 138C256.669 138 243.958 124.23 243.958 106.135C243.958 88.0397 257.199 74.0931 275.824 74.0931C286.593 74.0931 293.213 77.0943 299.569 82.4787L292.684 90.6877C287.917 86.6274 283.239 84.0676 275.383 84.0676C263.996 84.0676 255.345 93.9537 255.345 105.958C255.345 118.757 263.731 128.114 276.354 128.114C282.179 128.114 287.476 126.26 291.271 123.436V111.872H275.471V102.428H301.776V128.379C295.685 133.587 286.946 138 276.001 138Z" fill="white"/>
<path d="M334.515 112.583V136.945H345.461V112.318L370 75.1567H357.554L351.141 85.2018M309.976 75.1567L327.723 102.224L333.836 92.6517L322.775 75.1567H309.976Z" fill="white"/>
<path d="M309.976 75.1567L327.723 102.224L333.836 92.6517L322.775 75.1567H309.976Z" fill="#5ADD75"/>
</g>
<defs>
<clipPath id="clip0_153_3853">
<rect width="370" height="138" fill="white"/>
</clipPath>
</defs>
</svg>
